<svg width="19" height="24" viewBox="0 0 19 24" fill="none" xmlns="http://www.w3.org/2000/svg">
<path d="M15.8407 12.3754C15.8733 15.9004 18.9333 17.0736 18.9671 17.0886C18.9412 17.1711 18.4783 18.7603 17.3551 20.4015C16.3843 21.8205 15.3765 23.2342 13.7893 23.2639C12.2296 23.2924 11.7281 22.3387 9.94477 22.3387C8.16202 22.3387 7.60496 23.2342 6.12839 23.2924C4.59614 23.3505 3.42933 21.7577 2.45039 20.3441C0.450144 17.4521 -1.07854 12.1719 0.974019 8.60775C1.99364 6.83775 3.81614 5.71706 5.79408 5.68819C7.29858 5.6595 8.71871 6.70031 9.63839 6.70031C10.5575 6.70031 12.2833 5.44856 14.0975 5.63231C14.8571 5.664 16.989 5.93906 18.3579 7.94306C18.2478 8.0115 15.8143 9.42825 15.8407 12.3754ZM12.9095 3.71925C13.7229 2.73469 14.2704 1.36369 14.1211 0C12.9485 0.0470625 11.5306 0.781312 10.6897 1.7655C9.93596 2.63681 9.27596 4.03181 9.45389 5.3685C10.761 5.46975 12.096 4.70437 12.9095 3.71925Z" fill="#110808"/>
</svg>
