<svg width="289" height="210" viewBox="0 0 289 210" fill="none" xmlns="http://www.w3.org/2000/svg">
<g clip-path="url(#clip0_2_1472)">
<path d="M56.8801 112C51.7401 111.38 48.9601 108.43 48.4801 103.41C47.8601 96.89 50.3701 91.53 54.6101 86.84C58.8501 82.15 64.2501 79.48 70.0001 77.35C73.2201 76.16 76.4901 75.11 79.7901 74.17C80.2729 74.1169 80.7164 73.8791 81.0277 73.5062C81.339 73.1334 81.494 72.6545 81.4601 72.17C81.8306 68.5227 81.4911 64.8381 80.4601 61.32C79.4601 58.11 77.7101 55.5 74.2801 54.43C72.45 53.9636 70.537 53.926 68.6901 54.32C68.448 54.3391 68.2048 54.3021 67.9793 54.2119C67.7539 54.1217 67.5522 53.9808 67.3901 53.8C67.3427 53.5766 67.3508 53.3449 67.4135 53.1253C67.4763 52.9057 67.5918 52.7047 67.7501 52.54C68.5201 51.89 69.4501 51.45 70.2601 50.84C75.5801 46.78 78.9901 41.34 81.34 35.18C82.6709 32.0766 83.3287 28.7263 83.2701 25.35C83.2147 24.3412 82.9952 23.3481 82.6201 22.41C82.3803 21.7312 81.8917 21.1688 81.2531 20.8365C80.6145 20.5042 79.8735 20.4268 79.1801 20.62C75.9601 21.18 73.51 23.08 71.3101 25.34C67.8496 29.1042 64.9039 33.3109 62.5501 37.85C56.855 48.4682 52.1678 59.5969 48.5501 71.09C47.1301 75.4 46.2501 79.89 45.0001 84.27C43.1001 91 40.6501 97.53 36.6601 103.36C33.1301 108.52 28.6601 112.53 22.4701 114.19C18.3501 115.28 14.2001 115.54 10.2701 113.58C4.94005 110.92 2.00005 106.37 0.680052 100.7C-0.799948 94.33 0.240052 88.2 2.68005 82.25C5.42061 76.0261 9.49296 70.4791 14.6101 66C17.5458 63.0813 21.0383 60.7824 24.8801 59.24C28.1601 58.07 31.4801 57.52 34.8801 58.95C36.6139 59.7033 38.0532 61.0038 38.9778 62.6526C39.9025 64.3015 40.2615 66.2078 40.0001 68.08C39.4701 72.29 37.3801 75.69 34.6401 78.77C34.1401 79.33 33.5501 79.67 32.8401 79.12C32.1301 78.57 32.4001 77.89 33.0801 77.12C35.523 74.6274 37.1395 71.4432 37.7101 68C37.8709 67.0677 37.8273 66.1117 37.5822 65.1979C37.3371 64.2842 36.8964 63.4346 36.2906 62.708C35.6847 61.9814 34.9282 61.3951 34.0735 60.9897C33.2187 60.5843 32.286 60.3694 31.3401 60.36C27.7531 60.2171 24.225 61.3037 21.3401 63.44C13.2601 69.07 7.00005 76.26 3.70005 85.7C1.64005 91.57 1.28005 97.54 3.70005 103.42C5.70005 108.28 9.07005 111.82 14.4701 112.67C16.6998 113.007 18.9764 112.854 21.1406 112.22C23.3048 111.586 25.3046 110.487 27.0001 109C30.8601 105.84 33.2701 101.65 35.2901 97.2C38.3066 90.3024 40.4692 83.0621 41.7301 75.64C43.5801 65.64 45.1101 55.52 46.8101 45.46C47.8101 39.4 48.9201 33.35 49.9801 27.29C49.9801 27.12 49.9801 26.94 50.0501 26.55C48.3901 27.84 46.8801 29.04 45.3301 30.2C38.5567 35.4656 31.1939 39.9256 23.3901 43.49C20.2946 45.0212 16.8142 45.599 13.3901 45.15C8.26005 44.27 7.10005 40.2 8.30005 36.2C8.32691 36.0174 8.39264 35.8426 8.49283 35.6876C8.59301 35.5325 8.7253 35.4008 8.88076 35.3013C9.03623 35.2017 9.21124 35.1367 9.39398 35.1106C9.57673 35.0845 9.76294 35.098 9.94005 35.15C10.8101 35.4 10.7801 36.15 10.6501 36.85V36.95C9.15005 41.48 12.0001 43.58 16.3001 43.27C20.3001 42.98 23.8001 41.18 27.3001 39.34C35.5255 34.8134 43.263 29.4518 50.3901 23.34C50.7854 22.9388 51.0563 22.4317 51.1701 21.88C52.2518 16.7127 54.0882 11.7326 56.6201 7.10001C57.9927 4.44258 60.0995 2.23512 62.6901 0.740012C63.9756 0.0395229 65.473 -0.16676 66.9001 0.160012C69.6601 0.820012 70.7801 3.23001 69.6501 6.00001C68.5201 8.77001 66.4401 11.07 64.3601 13.24C62.0001 15.7 59.5301 18.04 57.1401 20.47C56.741 20.8715 56.4636 21.3776 56.3401 21.93C55.2201 28.23 54.1201 34.54 53.0901 40.86C52.1901 46.46 51.3901 52.09 50.5501 57.71C50.4945 57.9509 50.5301 58.2038 50.6501 58.42C50.8101 58.03 50.9701 57.64 51.1201 57.25C54.7701 48 58.8801 39 64.4301 30.62C66.8001 27.05 69.4301 23.62 72.9201 21.1C74.3795 20.0393 76.005 19.2283 77.7301 18.7C82.0901 17.45 85.4701 19.62 86.8301 24.26C87.9901 28.26 87.4301 32.18 86.2301 36.02C84.3781 42.1804 80.4756 47.5225 75.1701 51.16L74.7101 51.53C81.5001 52.26 84.1801 56.94 85.8501 62.78C86.44 61.88 86.9401 61.06 87.5001 60.28C89.4301 57.5082 91.9248 55.1762 94.8203 53.4372C97.7158 51.6982 100.946 50.5916 104.3 50.19C109.19 49.5 113.93 49.91 118.3 52.34C123.58 55.27 126.16 59.95 126.75 65.84C126.768 66.093 126.768 66.347 126.75 66.6H103.08C102.501 68.0575 101.443 69.2744 100.08 70.05C96.9687 72.119 93.4434 73.4841 89.7501 74.05L87.8201 74.41C88.0601 75.91 88.2001 77.41 88.5601 78.87C90.3101 85.94 94.3101 91.21 101.33 93.64C110.4 96.78 118.82 94.72 125.63 87.21C125.886 86.9344 126.048 86.584 126.09 86.21C126.28 81.24 129 78 133 75.5C137 73 141.37 71.78 145.8 70.57C150.71 69.23 155.64 67.98 160.55 66.65C160.712 66.5835 160.856 66.4787 160.969 66.3446C161.083 66.2106 161.162 66.0512 161.2 65.88C161.52 59.96 157.35 54.2 151.77 52.98C148.851 52.2771 145.807 52.273 142.886 52.968C139.965 53.6631 137.25 55.0377 134.96 56.98C133.56 58.11 132.39 59.52 131.07 60.76C130.94 60.8886 130.782 60.986 130.609 61.0449C130.436 61.1038 130.252 61.1226 130.07 61.1C129.45 60.83 129.83 60.41 130.07 60.1C133.69 55.7 137.98 52.23 143.59 50.75C148.014 49.4969 152.716 49.6331 157.06 51.14C162.8 53.14 165.65 57.55 166.16 63.37C166.53 67.62 166.35 71.91 166.39 76.19C166.44 80.76 166.39 85.32 166.51 89.89C166.589 91.2351 166.769 92.5722 167.05 93.89C167.164 94.5896 167.463 95.2463 167.914 95.7928C168.366 96.3392 168.954 96.7559 169.62 97C169.92 97.13 170.07 97.62 170.46 98.18C169.71 98.18 169.33 98.28 168.95 98.28H163.73C161.91 98.28 161.39 97.76 161.39 95.97C161.39 90.79 161.39 85.6 161.39 80.42V79.23L157.61 87.68C157.837 88.3653 157.991 89.0725 158.07 89.79C158.07 110.857 158.07 131.923 158.07 152.99C158.117 155.411 158.294 157.828 158.6 160.23C158.644 161.054 158.934 161.847 159.431 162.506C159.928 163.165 160.61 163.661 161.39 163.93C161.517 164.001 161.623 164.104 161.699 164.228C161.774 164.353 161.816 164.495 161.82 164.64C161.757 164.767 161.664 164.876 161.549 164.958C161.434 165.04 161.3 165.092 161.16 165.11C158.99 165.11 156.81 165.11 154.64 165.11C153.64 165.11 153 164.4 152.98 163.21C152.98 161.47 152.98 159.73 152.98 157.99C152.98 157.64 152.98 157.3 152.92 156.86C151.22 158.28 149.66 159.67 148 160.94C145.169 163.273 141.829 164.907 138.25 165.71C133.517 166.646 128.605 165.84 124.42 163.44C121.584 161.878 119.128 159.71 117.226 157.089C115.325 154.469 114.025 151.461 113.42 148.28C112.551 144.822 112.386 141.225 112.934 137.701C113.482 134.178 114.732 130.801 116.61 127.77C118.241 125.041 120.436 122.692 123.049 120.881C125.662 119.07 128.632 117.839 131.76 117.27C135.289 116.505 138.939 116.487 142.475 117.219C146.012 117.951 149.355 119.416 152.29 121.52C152.46 121.64 152.64 121.74 152.9 121.9C152.949 121.7 152.982 121.496 153 121.29C153 113.89 153 106.5 152.94 99.1C152.798 97.4447 152.544 95.801 152.18 94.18C151.04 95.01 150.25 95.62 149.42 96.18C143.76 99.84 137.9 100.43 131.88 97.18C130.463 96.4292 129.235 95.367 128.287 94.0732C127.34 92.7793 126.698 91.2876 126.41 89.71C126.35 89.43 126.27 89.15 126.15 88.71C125.23 89.62 124.42 90.47 123.57 91.27C120.255 94.5845 116.18 97.039 111.7 98.42C106.347 99.9299 100.625 99.4144 95.6273 96.972C90.63 94.5296 86.7077 90.3316 84.6101 85.18C84.5301 84.98 84.4401 84.79 84.3201 84.52C83.3201 86.93 82.4801 89.32 81.4101 91.62C80.3401 93.92 79.0001 96.16 78.0001 98.19C81.0001 98.97 84.2201 99.57 87.2601 100.65C91.7201 102.25 94.9501 105.29 95.6201 110.2C96.5401 116.88 94.2301 122.31 88.6201 126.2C85.6697 128.119 82.3411 129.381 78.8601 129.9C78.5565 129.934 78.274 130.072 78.0601 130.29C78.84 130.49 79.6201 130.67 80.4001 130.88C82.7995 131.491 85.0232 132.654 86.8946 134.275C88.7659 135.897 90.2333 137.932 91.1801 140.22C92.8101 143.88 94.1201 147.69 95.7501 151.36C97.2401 154.69 98.9401 157.92 100.62 161.16C101.122 161.921 101.699 162.632 102.34 163.28C102.838 162.848 103.245 162.321 103.539 161.731C103.832 161.14 104.006 160.498 104.05 159.84C104.286 158.3 104.423 156.747 104.46 155.19C104.46 146.13 104.46 137.067 104.46 128C104.413 127.024 104.306 126.053 104.14 125.09C104.057 124.311 103.773 123.566 103.315 122.93C102.858 122.293 102.243 121.787 101.53 121.46C101.356 121.367 101.204 121.238 101.085 121.081C100.966 120.924 100.882 120.743 100.84 120.55C100.84 120.32 101.26 119.94 101.57 119.8C103.68 118.8 105.81 117.95 107.93 117.03C109.21 116.48 109.57 116.71 109.57 118.11C109.57 127.5 109.57 136.89 109.57 146.28C109.57 150.01 109.64 153.74 109.77 157.47C109.856 158.661 110.047 159.842 110.34 161C110.468 161.644 110.755 162.245 111.177 162.748C111.598 163.252 112.139 163.641 112.75 163.88C113.03 164 113.18 164.4 113.39 164.68C113.09 164.84 112.77 165.15 112.48 165.13C109.191 165.081 105.904 165.299 102.65 165.78C99.3701 166.09 96.65 165.01 95.0201 162.08C93.59 159.49 92.4401 156.74 91.2601 154.02C89.2601 149.51 87.5001 144.93 85.5201 140.43C82.65 133.92 77.66 130.51 70.5201 130.43C68.1301 130.43 65.7301 130.43 63.3401 130.38C62.6401 130.38 62.3401 130.6 62.3401 131.32C62.4201 140.09 62.4601 148.86 62.5701 157.63C62.639 158.788 62.8369 159.935 63.1601 161.05C63.2965 161.672 63.5828 162.251 63.9941 162.738C64.4054 163.224 64.9292 163.602 65.5201 163.84C65.86 163.99 66.0701 164.42 66.34 164.72L66.1101 165.03C65.8001 165.03 65.4901 165.12 65.1801 165.12C61.5201 165.12 57.8601 165.12 54.1801 165.12C53.803 165.044 53.4434 164.898 53.1201 164.69C53.3601 164.4 53.5401 163.96 53.8501 163.83C55.7801 163.03 56.2901 161.32 56.5301 159.54C56.7697 157.71 56.89 155.866 56.8901 154.02C56.8901 140.353 56.8901 126.687 56.8901 113.02L56.8801 112ZM153 142.6C153 139.19 152.91 135.78 153 132.38C153.1 130.052 152.314 127.772 150.8 126C149.102 123.876 146.995 122.113 144.604 120.816C142.213 119.519 139.587 118.715 136.88 118.45C133.185 117.972 129.436 118.747 126.233 120.65C123.03 122.554 120.557 125.476 119.21 128.95C117.661 133.031 117.159 137.435 117.75 141.76C118.32 146.9 119.84 151.7 123.21 155.7C128 161.38 134.09 163.48 141.38 161.87C145.79 160.87 149.38 158.39 152.61 155.4C152.882 155.035 153.013 154.584 152.98 154.13C153 150.28 153 146.44 153 142.6ZM62.3601 129H63.6301C66.5301 129 69.4301 129.12 72.3201 129C74.7348 128.907 77.137 128.606 79.5001 128.1C85.9701 126.62 89.7001 121.73 89.7501 115.1C89.7501 110.87 88.6501 107.16 85.3601 104.32C83.1313 102.577 80.5526 101.335 77.8001 100.68C77.361 100.516 76.8782 100.511 76.4359 100.666C75.9935 100.821 75.6198 101.127 75.3801 101.53C72.2239 105.707 67.9233 108.879 63.0001 110.66C62.3401 110.89 62.2701 111.32 62.2701 111.91C62.2701 117.243 62.2701 122.607 62.2701 128C62.3001 128.25 62.3301 128.49 62.3601 129ZM161.49 67.92C161.125 67.9376 160.761 67.9743 160.4 68.03C156.28 69.1 152.15 70.15 148.04 71.26C144.449 72.0872 140.971 73.3429 137.68 75C134.01 77 131.68 79.86 131.44 84.25C131.24 88.95 133.63 92.81 137.94 94.35C140.381 95.2244 143.035 95.3153 145.53 94.61C146.97 94.23 148.35 93.61 149.82 93.06C148.92 91.85 149 91.59 150.19 91.06C151.172 90.6926 152.131 90.2652 153.06 89.78C153.938 89.299 154.724 88.6659 155.38 87.91C158.434 84.055 160.378 79.4388 161 74.56C161.35 72.4 161.34 70.19 161.49 67.87V67.92ZM57.0901 109.62C56.7801 107.18 56.5601 104.77 56.1501 102.4C56.0651 101.782 55.8136 101.199 55.4226 100.712C55.0315 100.226 54.5156 99.8555 53.9301 99.64C53.4601 99.46 52.8501 99.27 53.1401 98.64C53.2501 98.4 53.8401 98.27 54.2101 98.26C59.9701 98.26 65.7301 98.26 71.5001 98.26C71.8498 98.2978 72.2027 98.2281 72.5118 98.0601C72.8209 97.8922 73.0715 97.634 73.2301 97.32C76.2951 92.1804 78.5769 86.6125 80.0001 80.8C80.3901 79.24 80.6401 77.65 81.0001 75.94C80.0001 76.23 79.1101 76.44 78.2801 76.68C71.7801 78.54 65.44 80.74 60.0101 84.94C55.0101 88.79 51.3801 93.48 50.5801 99.94C50.2117 102.323 50.6368 104.762 51.7901 106.88C52.2416 107.86 53.0105 108.658 53.9724 109.146C54.9343 109.635 56.0328 109.784 57.0901 109.57V109.62ZM88.7501 65.35H121.28C119.94 57.16 112.64 51.45 103.9 51.66C95.7801 51.86 90.1601 58.27 88.7501 65.35ZM57.7001 16.5L58.0501 16.77C60.8801 13.5 63.73 10.25 66.5201 6.94001C67.0516 6.30032 67.422 5.54245 67.6001 4.73001C67.7437 4.04434 67.6222 3.3297 67.2601 2.73001C66.7401 1.99001 65.8201 2.22001 65.2001 2.73001C64.2981 3.37101 63.4902 4.13509 62.8001 5.00001C60.2201 8.44001 58.8301 12.42 57.7001 16.5ZM62.3901 99.64V108.18C66.1354 106.139 69.3195 103.206 71.6601 99.64H62.3901ZM100.51 66.64C96.6701 66.64 92.8401 66.64 89.0101 66.64C88.7701 66.64 88.3501 66.93 88.3301 67.12C88.1001 68.79 87.9401 70.47 87.7501 72.3C92.6001 71.43 97.1501 70.49 100.51 66.66V66.64Z" fill="#683131"/>
<path d="M218.23 51.73H211.94C212.11 51.0919 212.373 50.4821 212.72 49.92C215.6 46.76 218.51 43.6267 221.45 40.52C221.99 40.083 222.577 39.7073 223.2 39.4C223.25 40.17 223.3 40.55 223.3 40.93C223.3 43.76 223.3 46.59 223.3 49.42C223.3 50.28 223.56 50.55 224.42 50.53C227.42 50.46 230.36 50.45 233.33 50.44C237.17 50.44 241 50.44 244.84 50.44L245.12 50.76C244.9 51.1 244.77 51.62 244.47 51.76C244.223 51.834 243.995 51.9579 243.798 52.124C243.601 52.29 243.441 52.4947 243.326 52.7253C243.212 52.956 243.146 53.2077 243.133 53.4648C243.12 53.7219 243.16 53.9789 243.25 54.22C243.94 56.46 244.65 58.71 245.54 60.88C249.54 70.58 253.61 80.25 257.65 89.93C257.86 90.43 258.09 90.93 258.38 91.56C259.76 88.39 261.08 85.37 262.38 82.36C265.44 75.28 268.56 68.23 271.52 61.11C272.271 59.136 272.811 57.0879 273.13 55C273.256 54.3269 273.132 53.6309 272.783 53.0421C272.433 52.4533 271.881 52.0118 271.23 51.8C270.92 51.66 270.75 51.2 270.34 50.65H280.81C280.96 51.21 281.03 51.65 280.28 51.89C278.369 52.5525 276.79 53.9334 275.88 55.74C274.18 58.97 272.56 62.25 271.09 65.59C266.27 76.51 261.57 87.5 256.73 98.41C254.57 103.656 251.326 108.386 247.21 112.29C245.488 113.926 243.44 115.18 241.199 115.969C238.959 116.758 236.577 117.065 234.21 116.87C232.881 116.747 231.577 116.43 230.34 115.93C229.04 115.43 228.83 114.56 229.34 113.27C229.857 112.096 230.793 111.157 231.965 110.635C233.137 110.114 234.462 110.048 235.68 110.45C238.37 111.14 241.07 111.83 243.75 112.57C244.056 112.665 244.383 112.676 244.695 112.604C245.008 112.533 245.296 112.379 245.53 112.16C249.21 109.16 251.66 105.16 254.06 101.16C254.629 100.311 254.96 99.3253 255.018 98.3051C255.076 97.2849 254.859 96.2679 254.39 95.36C249.39 83.69 244.61 71.92 239.66 60.22C238.667 58.0526 237.49 55.9749 236.14 54.01C235.668 53.2501 234.993 52.638 234.19 52.2437C233.387 51.8494 232.49 51.6887 231.6 51.78C229.18 51.9 226.74 51.84 224.31 51.78C223.49 51.78 223.31 52.05 223.31 52.85C223.31 64.12 223.31 75.4 223.37 86.67C223.397 88.5102 223.735 90.3326 224.37 92.06C225.46 95.06 228.11 96.06 231.13 95.83C234.192 95.5056 237.033 94.0849 239.13 91.83C239.52 91.46 239.86 91.04 240.3 90.56L241.25 91.42C237.36 95.42 233.51 99.31 227.41 99.29C223.15 99.29 220.13 97.08 219.09 92.91C218.557 90.8071 218.272 88.6491 218.24 86.48C218.16 75.42 218.24 64.37 218.24 53.31L218.23 51.73Z" fill="#683131"/>
<path d="M204.74 89.17C204.575 89.5752 204.36 89.9582 204.1 90.31C200.48 93.94 196.47 96.98 191.46 98.46C187.979 99.5425 184.251 99.5425 180.77 98.46C175.54 96.82 172.77 92.99 171.65 87.82C171.258 85.8643 171.061 83.8746 171.06 81.88C170.98 75.14 171.06 68.4 170.98 61.65C170.963 60.5643 170.867 59.4814 170.69 58.41C170.619 57.5975 170.332 56.8187 169.859 56.1542C169.386 55.4897 168.744 54.9635 168 54.63C167.7 54.49 167.32 54.08 167.32 53.81C167.32 53.54 167.73 53.17 168.05 53.03C170.22 52.03 172.42 51.12 174.61 50.17C175.71 49.7 176.12 49.97 176.13 51.17C176.13 54.1 176.13 57.04 176.13 59.98C176.13 66.87 176.13 73.76 176.13 80.64C176.067 83.5469 176.534 86.441 177.51 89.18C179.2 93.61 182.44 95.85 187.13 96.18C193.59 96.69 198.55 93.77 203.05 89.57C203.838 88.901 204.458 88.057 204.861 87.1054C205.263 86.1538 205.438 85.1211 205.37 84.09C205.2 77.02 205.37 69.95 205.29 62.88C205.231 61.2052 205.071 59.5355 204.81 57.88C204.713 57.1386 204.422 56.4361 203.965 55.8442C203.508 55.2522 202.903 54.7918 202.21 54.51C202.037 54.419 201.885 54.2914 201.766 54.136C201.647 53.9806 201.563 53.8011 201.52 53.61C201.52 53.39 201.95 53.02 202.27 52.88C204.27 51.96 206.37 51.1 208.43 50.19C210.02 49.49 210.37 49.71 210.37 51.42V82.23C210.37 84.69 210.37 87.16 210.44 89.62C210.523 91.0914 210.71 92.555 211 94C211.115 94.6847 211.405 95.3277 211.844 95.866C212.282 96.4043 212.853 96.8192 213.5 97.07C213.78 97.18 213.93 97.6 214.13 97.88C213.85 98.03 213.57 98.3 213.29 98.31C211.29 98.31 209.29 98.31 207.29 98.31C206.895 98.3411 206.502 98.2244 206.188 97.9823C205.874 97.7403 205.661 97.3902 205.59 97C205.417 96.1168 205.324 95.2199 205.31 94.32C205.31 92.73 205.31 91.15 205.31 89.56L204.74 89.17Z" fill="#683131"/>
<path d="M204.14 133.45H167.45C165.75 133.45 165.66 133.45 165.45 135.1C164.63 141.9 165.51 148.35 169.76 153.97C171.38 156.088 173.416 157.853 175.743 159.157C178.069 160.46 180.638 161.275 183.29 161.55C191.57 162.71 198.05 159.55 203.44 153.55C203.652 153.274 203.849 152.987 204.03 152.69L205.08 153.69C203.57 155.27 202.18 156.88 200.64 158.33C197.079 161.867 192.623 164.369 187.75 165.57C182.85 166.643 177.733 166.065 173.196 163.925C168.659 161.785 164.958 158.204 162.67 153.74C157.67 143.82 160.21 130.4 168.49 123.01C172.939 119.042 178.679 116.828 184.64 116.78C189.32 116.64 193.72 117.56 197.54 120.42C201.83 123.56 203.79 128 204.14 133.45ZM166.07 132.15H198.57C197.888 128.389 195.94 124.975 193.049 122.473C190.159 119.972 186.5 118.535 182.68 118.4C172.94 118.16 167.4 125.48 166.07 132.15Z" fill="#683131"/>
<path d="M110.34 104C110.355 104.523 110.264 105.043 110.074 105.529C109.883 106.016 109.596 106.459 109.23 106.833C108.864 107.206 108.427 107.502 107.944 107.703C107.461 107.903 106.943 108.004 106.42 108C105.359 107.989 104.346 107.558 103.603 106.8C102.861 106.043 102.45 105.021 102.46 103.96C102.471 102.899 102.902 101.886 103.66 101.143C104.418 100.401 105.439 99.9894 106.5 100C107.019 99.9953 107.534 100.097 108.013 100.298C108.491 100.5 108.924 100.797 109.283 101.171C109.643 101.546 109.922 101.99 110.104 102.477C110.286 102.963 110.366 103.481 110.34 104Z" fill="#683131"/>
<path d="M245.83 157.36C245.367 157.57 244.976 157.912 244.707 158.343C244.439 158.775 244.304 159.277 244.321 159.785C244.337 160.293 244.504 160.785 244.8 161.198C245.096 161.611 245.508 161.928 245.984 162.107C246.46 162.286 246.978 162.32 247.473 162.204C247.968 162.089 248.418 161.829 248.765 161.458C249.113 161.087 249.342 160.621 249.425 160.12C249.508 159.618 249.44 159.103 249.23 158.64C249.093 158.331 248.895 158.052 248.65 157.82C248.404 157.588 248.114 157.408 247.798 157.288C247.481 157.169 247.144 157.114 246.807 157.127C246.469 157.139 246.137 157.218 245.83 157.36Z" fill="#683131"/>
<path d="M247.5 160.93C247.169 161.076 246.794 161.087 246.456 160.96C246.118 160.833 245.842 160.578 245.69 160.25C245.612 160.087 245.568 159.91 245.56 159.73C245.552 159.549 245.581 159.369 245.644 159.2C245.708 159.031 245.805 158.877 245.929 158.746C246.054 158.615 246.204 158.511 246.37 158.44C246.699 158.29 247.074 158.277 247.413 158.402C247.752 158.528 248.028 158.782 248.18 159.11C248.329 159.442 248.342 159.819 248.215 160.16C248.087 160.501 247.83 160.778 247.5 160.93Z" fill="#683131"/>
<path d="M239.93 209.59C238.76 193.405 239.633 177.137 242.53 161.17C242.6 161.33 242.61 161.46 242.69 161.62C243.188 162.675 244.066 163.502 245.149 163.936C246.232 164.37 247.439 164.379 248.527 163.96C249.616 163.541 250.506 162.725 251.018 161.677C251.531 160.629 251.628 159.427 251.29 158.31C258.237 162.666 264.937 167.403 271.36 172.5C277.212 177.193 282.826 182.176 288.18 187.43L248.91 165L239.93 209.59ZM222.7 146.35C213.7 139.47 204.05 136.82 198.09 139.54C197.202 139.941 196.387 140.489 195.68 141.16C193.823 143.133 192.789 145.74 192.79 148.45V148.64L192.84 148.85C193.616 151.83 195.378 154.46 197.84 156.31C202.06 159.31 208.36 159.38 214.68 156.5C217.449 155.228 220.008 153.542 222.27 151.5C222.63 151.76 222.96 152.08 223.27 152.34C221.021 154.254 218.521 155.852 215.84 157.09C208.13 160.61 200.07 160.28 195.33 156.18C191.7 153.18 190.57 148.51 190.27 145.07C191.57 138.83 194.51 136.07 196.12 134.98C196.588 134.671 197.079 134.4 197.59 134.17C204.44 131.04 216.39 133.93 225.93 145.58L226.93 146.84L227.86 145.48C230.387 141.721 231.959 137.403 232.44 132.9L232.52 132.06L231.79 131.69C220.23 126.13 213.13 116.24 215.26 108.63C216.198 105.859 218.067 103.498 220.55 101.95C222.725 101.066 225.138 100.964 227.38 101.66C233.72 103.9 237.2 114.12 235.83 125.9L233.39 123.9C232.9 112.69 229.18 104.83 223.58 103.29C222.521 103.007 221.417 102.935 220.33 103.08L219.89 103.14L219.61 103.45C218.575 104.594 217.822 105.964 217.41 107.45C215.05 116.62 228.41 126.58 232.54 129.45C237.169 132.593 242.304 134.917 247.72 136.32L249.52 136.77L249.21 134.94C248.035 127.998 249.023 120.862 252.04 114.5C253.708 111.391 256.335 108.905 259.53 107.41C262.201 106.122 265.247 105.838 268.11 106.61C272.77 107.97 275.21 112.08 276.11 113.93C277.035 118.362 276.406 122.977 274.33 127C272.274 130.679 269.076 133.589 265.22 135.29C262.261 136.627 259.057 137.335 255.81 137.37L255.89 136.62C258.828 136.453 261.708 135.733 264.38 134.5C267.186 133.219 269.719 131.41 271.84 129.17C273.268 127.694 274.379 125.942 275.104 124.021C275.83 122.1 276.155 120.051 276.06 118C276.009 116.817 275.716 115.656 275.2 114.59C274.685 113.524 273.956 112.574 273.06 111.8C269.06 108.7 262.96 111.41 262.92 111.43C261.905 112.009 260.945 112.678 260.05 113.43C255.85 116.9 253.05 122.43 251.05 140.43C250.48 145.58 250.1 150.84 249.85 156.08C249.14 155.542 248.291 155.219 247.403 155.15C246.515 155.08 245.626 155.267 244.841 155.689C244.056 156.11 243.409 156.748 242.976 157.526C242.544 158.305 242.344 159.191 242.4 160.08L222.7 146.35ZM243.33 156L244.5 153.82C246.877 149.109 248.382 144.007 248.94 138.76L249.05 137.06L247.37 137.5C244.1 138.38 237.89 135.37 235.77 134.13L234.28 133.25L234 135C233.55 137.42 231.74 144.08 228.93 146L227.48 147L228.84 148C232.998 150.899 237.627 153.057 242.52 154.38L243.32 156.14L243.33 156Z" fill="#683131"/>
</g>
<defs>
<clipPath id="clip0_2_1472">
<rect width="288.18" height="209.59" fill="white"/>
</clipPath>
</defs>
</svg>
