<svg width="32" height="32" viewBox="0 0 32 32" fill="none" xmlns="http://www.w3.org/2000/svg">
<path d="M10.6665 7.66669C10.1198 7.66669 9.6665 7.21335 9.6665 6.66669V2.66669C9.6665 2.12002 10.1198 1.66669 10.6665 1.66669C11.2132 1.66669 11.6665 2.12002 11.6665 2.66669V6.66669C11.6665 7.21335 11.2132 7.66669 10.6665 7.66669Z" fill="#8A4242"/>
<path d="M21.3335 7.66669C20.7868 7.66669 20.3335 7.21335 20.3335 6.66669V2.66669C20.3335 2.12002 20.7868 1.66669 21.3335 1.66669C21.8802 1.66669 22.3335 2.12002 22.3335 2.66669V6.66669C22.3335 7.21335 21.8802 7.66669 21.3335 7.66669Z" fill="#8A4242"/>
<path d="M11.3333 19.3333C11.16 19.3333 10.9867 19.2934 10.8267 19.2267C10.6533 19.16 10.52 19.0667 10.3867 18.9467C10.1467 18.6933 10 18.36 10 18C10 17.8267 10.04 17.6533 10.1067 17.4933C10.1733 17.3333 10.2667 17.1867 10.3867 17.0534C10.52 16.9334 10.6533 16.84 10.8267 16.7733C11.3067 16.5733 11.9067 16.68 12.28 17.0534C12.52 17.3067 12.6667 17.6533 12.6667 18C12.6667 18.08 12.6533 18.1734 12.64 18.2667C12.6267 18.3467 12.6 18.4267 12.56 18.5067C12.5333 18.5867 12.4933 18.6667 12.44 18.7467C12.4 18.8133 12.3333 18.88 12.28 18.9467C12.0267 19.1867 11.68 19.3333 11.3333 19.3333Z" fill="#8A4242"/>
<path d="M15.9998 19.3333C15.8265 19.3333 15.6532 19.2934 15.4932 19.2267C15.3198 19.16 15.1865 19.0667 15.0532 18.9467C14.8132 18.6933 14.6665 18.36 14.6665 18C14.6665 17.8267 14.7065 17.6533 14.7732 17.4933C14.8398 17.3333 14.9332 17.1867 15.0532 17.0534C15.1865 16.9334 15.3198 16.84 15.4932 16.7733C15.9732 16.56 16.5732 16.68 16.9465 17.0534C17.1865 17.3067 17.3332 17.6533 17.3332 18C17.3332 18.08 17.3198 18.1734 17.3065 18.2667C17.2932 18.3467 17.2665 18.4267 17.2265 18.5067C17.1998 18.5867 17.1598 18.6667 17.1065 18.7467C17.0665 18.8133 16.9998 18.88 16.9465 18.9467C16.6932 19.1867 16.3465 19.3333 15.9998 19.3333Z" fill="#8A4242"/>
<path d="M20.6668 19.3333C20.4935 19.3333 20.3202 19.2934 20.1602 19.2267C19.9868 19.16 19.8535 19.0667 19.7202 18.9467C19.6668 18.88 19.6135 18.8133 19.5602 18.7467C19.5068 18.6667 19.4668 18.5867 19.4402 18.5067C19.4002 18.4267 19.3735 18.3467 19.3602 18.2667C19.3468 18.1734 19.3335 18.08 19.3335 18C19.3335 17.6533 19.4802 17.3067 19.7202 17.0534C19.8535 16.9334 19.9868 16.84 20.1602 16.7733C20.6535 16.56 21.2402 16.68 21.6135 17.0534C21.8535 17.3067 22.0002 17.6533 22.0002 18C22.0002 18.08 21.9868 18.1734 21.9735 18.2667C21.9602 18.3467 21.9335 18.4267 21.8935 18.5067C21.8668 18.5867 21.8268 18.6667 21.7735 18.7467C21.7335 18.8133 21.6668 18.88 21.6135 18.9467C21.3602 19.1867 21.0135 19.3333 20.6668 19.3333Z" fill="#8A4242"/>
<path d="M11.3333 24C11.16 24 10.9867 23.96 10.8267 23.8934C10.6667 23.8267 10.52 23.7333 10.3867 23.6133C10.1467 23.36 10 23.0134 10 22.6667C10 22.4934 10.04 22.32 10.1067 22.16C10.1733 21.9867 10.2667 21.84 10.3867 21.72C10.88 21.2267 11.7867 21.2267 12.28 21.72C12.52 21.9734 12.6667 22.32 12.6667 22.6667C12.6667 23.0134 12.52 23.36 12.28 23.6133C12.0267 23.8533 11.68 24 11.3333 24Z" fill="#8A4242"/>
<path d="M15.9998 24C15.6532 24 15.3065 23.8533 15.0532 23.6133C14.8132 23.36 14.6665 23.0134 14.6665 22.6667C14.6665 22.4934 14.7065 22.32 14.7732 22.16C14.8398 21.9867 14.9332 21.84 15.0532 21.72C15.5465 21.2267 16.4532 21.2267 16.9465 21.72C17.0665 21.84 17.1598 21.9867 17.2265 22.16C17.2932 22.32 17.3332 22.4934 17.3332 22.6667C17.3332 23.0134 17.1865 23.36 16.9465 23.6133C16.6932 23.8533 16.3465 24 15.9998 24Z" fill="#8A4242"/>
<path d="M20.6668 24.0001C20.3202 24.0001 19.9735 23.8534 19.7202 23.6134C19.6002 23.4934 19.5068 23.3467 19.4402 23.1734C19.3735 23.0134 19.3335 22.8401 19.3335 22.6667C19.3335 22.4934 19.3735 22.3201 19.4402 22.1601C19.5068 21.9867 19.6002 21.8401 19.7202 21.7201C20.0268 21.4134 20.4935 21.2667 20.9202 21.3601C21.0135 21.3734 21.0935 21.4 21.1735 21.44C21.2535 21.4667 21.3335 21.5068 21.4135 21.5601C21.4802 21.6001 21.5468 21.6667 21.6135 21.7201C21.8535 21.9734 22.0002 22.3201 22.0002 22.6667C22.0002 23.0134 21.8535 23.3601 21.6135 23.6134C21.3602 23.8534 21.0135 24.0001 20.6668 24.0001Z" fill="#8A4242"/>
<path d="M27.3332 13.1199H4.6665C4.11984 13.1199 3.6665 12.6666 3.6665 12.1199C3.6665 11.5733 4.11984 11.1199 4.6665 11.1199H27.3332C27.8798 11.1199 28.3332 11.5733 28.3332 12.1199C28.3332 12.6666 27.8798 13.1199 27.3332 13.1199Z" fill="#8A4242"/>
<path d="M21.3333 30.3334H10.6667C5.8 30.3334 3 27.5334 3 22.6667V11.3334C3 6.46669 5.8 3.66669 10.6667 3.66669H21.3333C26.2 3.66669 29 6.46669 29 11.3334V22.6667C29 27.5334 26.2 30.3334 21.3333 30.3334ZM10.6667 5.66669C6.85333 5.66669 5 7.52002 5 11.3334V22.6667C5 26.48 6.85333 28.3334 10.6667 28.3334H21.3333C25.1467 28.3334 27 26.48 27 22.6667V11.3334C27 7.52002 25.1467 5.66669 21.3333 5.66669H10.6667Z" fill="#8A4242"/>
</svg>
