<svg width="40" height="40" viewBox="0 0 40 40" fill="none" xmlns="http://www.w3.org/2000/svg">
<g clip-path="url(#clip0_2_1944)">
<path d="M28.9934 40H12.5577C11.5885 40 10.8 39.2115 10.8 38.2423V37.4545C6.69563 35.562 2.33919 29.9476 2.33919 26.4439C2.33919 25.4747 3.12774 24.6862 4.09689 24.6862H6.75625C7.07991 24.6862 7.34215 24.9484 7.34215 25.2721C7.34215 25.5957 7.07991 25.858 6.75625 25.858H4.09689C3.77379 25.858 3.51099 26.1208 3.51099 26.4439C3.51099 27.8441 4.49359 29.9666 6.07528 31.9831C7.69643 34.0499 9.71708 35.7241 11.503 36.4846H23.5937C23.9173 36.4846 24.1796 36.7469 24.1796 37.0705C24.1796 37.3942 23.9173 37.6564 23.5937 37.6564H11.9718V38.2423C11.9718 38.5654 12.2346 38.8282 12.5577 38.8282H28.9934C29.3165 38.8282 29.5793 38.5654 29.5793 38.2423V37.6564H25.9374C25.6138 37.6564 25.3515 37.3942 25.3515 37.0705C25.3515 36.7469 25.6138 36.4846 25.9374 36.4846H30.048C31.8339 35.7241 33.8547 34.0499 35.4758 31.9831C37.0574 29.9665 38.04 27.8441 38.04 26.4439C38.04 26.1208 37.7772 25.858 37.4541 25.858H30.7701L29.2889 27.3393C29.179 27.4491 29.03 27.5108 28.8745 27.5108C28.7191 27.5108 28.5702 27.4491 28.4602 27.3393L25.7919 24.6709C25.5631 24.4421 25.5631 24.0711 25.7919 23.8423C26.0208 23.6136 26.3917 23.6136 26.6205 23.8423L28.8745 26.0964L30.6185 24.3523C30.7292 24.2417 30.7902 24.0946 30.7902 23.938C30.7902 23.7815 30.7292 23.6344 30.6185 23.5238L27.5359 20.4411L21.2347 26.7424L24.3173 29.8249C24.5457 30.0536 24.9175 30.0534 25.1459 29.8249L25.5602 29.4106L23.3061 27.1566C23.0772 26.9278 23.0772 26.5568 23.306 26.328C23.5349 26.0993 23.9059 26.0993 24.1346 26.328L26.3887 28.5821L26.8196 28.1511C27.0485 27.9223 27.4195 27.9225 27.6482 28.1511C27.877 28.38 27.877 28.7509 27.6482 28.9797L25.9744 30.6535C25.6424 30.9855 25.201 31.1683 24.7315 31.1683C24.2619 31.1683 23.8205 30.9855 23.4885 30.6535L20.3355 27.5005C19.7749 27.7693 19.0973 27.7265 18.5634 27.3494L16.4513 25.8578C16.4479 25.8579 16.4445 25.8579 16.4409 25.8579H16.0729C15.1038 25.8579 14.3152 26.6464 14.3152 27.6156V30.854C14.3152 31.3322 14.1167 31.7958 13.7706 32.1259C13.4196 32.4607 12.9598 32.6329 12.4732 32.6096C11.5349 32.5654 10.7998 31.7797 10.7998 30.8209V25.8579H9.0997C8.77605 25.8579 8.5138 25.5957 8.5138 25.272C8.5138 24.9484 8.77605 24.6861 9.0997 24.6861H14.7922L14.2854 24.3281C13.7105 23.9222 13.4337 23.215 13.5801 22.5266L14.334 18.9824C14.6586 17.4559 14.1936 15.8858 13.0901 14.7824L1.30332 2.99563C0.96522 2.65745 0.777732 2.18927 0.789059 1.7111C0.800465 1.22613 1.00483 0.778817 1.36433 0.451728C2.05913 -0.180653 3.13438 -0.144874 3.81254 0.533207L15.5761 12.2967C16.6795 13.4003 18.2499 13.8653 19.7761 13.5406C20.0924 13.4732 20.4037 13.6753 20.4711 13.9917C20.5383 14.3083 20.3364 14.6193 20.0199 14.6867C18.104 15.0945 16.1327 14.5105 14.7475 13.1254L2.98392 1.36183C2.75307 1.13082 2.38029 1.11137 2.15303 1.31831C2.03273 1.42776 1.96437 1.57712 1.96055 1.73868C1.95672 1.90046 2.01757 2.05264 2.13194 2.16701L13.9189 13.9538C15.3041 15.339 15.8879 17.3101 15.4803 19.2263L14.7264 22.7705C14.6776 23 14.77 23.2357 14.9615 23.371L19.2396 26.3924C19.4734 26.5574 19.7897 26.5304 19.992 26.3281L27.1217 19.1982C27.3241 18.9959 27.3511 18.6795 27.186 18.4459L24.1647 14.1679C24.0294 13.9764 23.7938 13.8838 23.5642 13.9328L22.4616 14.1673C22.1453 14.2344 21.8341 14.0326 21.7667 13.716C21.6994 13.3996 21.9015 13.0884 22.2179 13.0211L23.3204 12.7866C24.0086 12.64 24.7157 12.917 25.1218 13.4918L28.1432 17.7698C28.5201 18.3036 28.563 18.9812 28.2942 19.5421L31.4472 22.6951C31.9848 23.2327 32.1006 24.0345 31.795 24.6861H37.4541C38.4233 24.6861 39.2118 25.4746 39.2118 26.4438C39.2118 29.9476 34.8554 35.562 30.751 37.4544V38.2423C30.7511 39.2116 29.9626 40 28.9934 40ZM11.9718 25.858V30.8209C11.9718 31.1474 12.2215 31.4247 12.5285 31.4392C12.6906 31.4472 12.8449 31.3897 12.962 31.278C13.0791 31.1663 13.1436 31.0158 13.1436 30.854V27.6156C13.1436 26.9567 13.3623 26.3478 13.7309 25.8579H11.9718V25.858Z" fill="#8A4242"/>
</g>
<defs>
<clipPath id="clip0_2_1944">
<rect width="40" height="40" fill="white"/>
</clipPath>
</defs>
</svg>
