<svg width="36" height="36" viewBox="0 0 36 36" fill="none" xmlns="http://www.w3.org/2000/svg">
<rect width="36" height="36" rx="18" fill="#8A4242"/>
<path d="M11.2273 14.3357L23.9228 10.0783C24.2012 9.98711 24.4991 9.97533 24.7836 10.0442C25.0682 10.1132 25.3283 10.2601 25.5352 10.4688C25.7421 10.6775 25.8878 10.9398 25.9561 11.2268C26.0245 11.5138 26.0128 11.8142 25.9224 12.095L21.7011 24.8992C21.5968 25.2194 21.3948 25.4983 21.1241 25.6959C20.8534 25.8936 20.5277 26 20.1935 26C19.8593 26 19.5336 25.8936 19.2629 25.6959C18.9922 25.4983 18.7903 25.2194 18.6859 24.8992L17.099 20.0976C17.0215 19.8584 16.8891 19.6409 16.7126 19.4629C16.5362 19.285 16.3206 19.1515 16.0833 19.0733L11.3225 17.4728C10.9609 17.4111 10.6317 17.2251 10.3907 16.9463C10.1498 16.6676 10.012 16.3132 10.0007 15.9436C9.98952 15.5739 10.1056 15.2117 10.3292 14.9186C10.5528 14.6255 10.8701 14.4195 11.2273 14.3357Z" fill="white"/>
</svg>
