<svg width="24" height="24" viewBox="0 0 24 24" fill="none" xmlns="http://www.w3.org/2000/svg">
<path d="M18.3573 12.7284C18.3899 16.2534 21.4499 17.4266 21.4837 17.4416C21.4578 17.5241 20.9949 19.1134 19.8717 20.7546C18.9009 22.1736 17.8931 23.5873 16.3059 23.6169C14.7462 23.6454 14.2447 22.6918 12.4614 22.6918C10.6786 22.6918 10.1216 23.5873 8.645 23.6454C7.11275 23.7036 5.94593 22.1107 4.967 20.6972C2.96675 17.8052 1.43806 12.525 3.49062 8.96081C4.51025 7.19081 6.33275 6.07012 8.31068 6.04125C9.81518 6.01256 11.2353 7.05337 12.155 7.05337C13.0741 7.05337 14.7999 5.80162 16.6141 5.98537C17.3737 6.01706 19.5056 6.29212 20.8745 8.29612C20.7644 8.36456 18.3309 9.78131 18.3573 12.7284ZM15.4261 4.07231C16.2395 3.08775 16.787 1.71675 16.6377 0.353058C15.4651 0.40012 14.0472 1.13437 13.2063 2.11856C12.4526 2.98987 11.7926 4.38487 11.9705 5.72156C13.2776 5.82281 14.6126 5.05743 15.4261 4.07231Z" fill="#110808"/>
</svg>
