<svg width="16" height="16" viewBox="0 0 16 16" fill="none" xmlns="http://www.w3.org/2000/svg">
<path d="M7.60016 15.1667H5.06683C2.14016 15.1667 0.833496 13.86 0.833496 10.9334V8.40002C0.833496 5.47335 2.14016 4.16669 5.06683 4.16669H7.06683C7.34016 4.16669 7.56683 4.39335 7.56683 4.66669C7.56683 4.94002 7.34016 5.16669 7.06683 5.16669H5.06683C2.68016 5.16669 1.8335 6.01335 1.8335 8.40002V10.9334C1.8335 13.32 2.68016 14.1667 5.06683 14.1667H7.60016C9.98683 14.1667 10.8335 13.32 10.8335 10.9334V8.93335C10.8335 8.66002 11.0602 8.43335 11.3335 8.43335C11.6068 8.43335 11.8335 8.66002 11.8335 8.93335V10.9334C11.8335 13.86 10.5268 15.1667 7.60016 15.1667Z" fill="white"/>
<path d="M11.3336 9.43335H9.20023C7.32689 9.43335 6.56689 8.67335 6.56689 6.80001V4.66668C6.56689 4.46668 6.68689 4.28001 6.87356 4.20668C7.06023 4.12668 7.27356 4.17335 7.42023 4.31335L11.6869 8.58001C11.8269 8.72001 11.8736 8.94001 11.7936 9.12668C11.7202 9.31335 11.5336 9.43335 11.3336 9.43335ZM7.56689 5.87335V6.80001C7.56689 8.12668 7.87356 8.43335 9.20023 8.43335H10.1269L7.56689 5.87335Z" fill="white"/>
<path d="M10.4001 1.83331H7.7334C7.46007 1.83331 7.2334 1.60665 7.2334 1.33331C7.2334 1.05998 7.46007 0.833313 7.7334 0.833313H10.4001C10.6734 0.833313 10.9001 1.05998 10.9001 1.33331C10.9001 1.60665 10.6734 1.83331 10.4001 1.83331Z" fill="white"/>
<path d="M4.6665 3.83331C4.39317 3.83331 4.1665 3.60665 4.1665 3.33331C4.1665 1.95331 5.2865 0.833313 6.6665 0.833313H8.41317C8.6865 0.833313 8.91317 1.05998 8.91317 1.33331C8.91317 1.60665 8.6865 1.83331 8.41317 1.83331H6.6665C5.83984 1.83331 5.1665 2.50665 5.1665 3.33331C5.1665 3.60665 4.93984 3.83331 4.6665 3.83331Z" fill="white"/>
<path d="M12.7935 11.8333C12.5201 11.8333 12.2935 11.6066 12.2935 11.3333C12.2935 11.06 12.5201 10.8333 12.7935 10.8333C13.5535 10.8333 14.1668 10.2133 14.1668 9.45998V5.33331C14.1668 5.05998 14.3935 4.83331 14.6668 4.83331C14.9401 4.83331 15.1668 5.05998 15.1668 5.33331V9.45998C15.1668 10.7666 14.1001 11.8333 12.7935 11.8333Z" fill="white"/>
<path d="M14.6665 5.83331H12.6665C10.8932 5.83331 10.1665 5.10664 10.1665 3.33331V1.33331C10.1665 1.13331 10.2865 0.946639 10.4732 0.873305C10.6598 0.793305 10.8732 0.839972 11.0198 0.979972L15.0198 4.97997C15.1598 5.11997 15.2065 5.33997 15.1265 5.52664C15.0532 5.71331 14.8665 5.83331 14.6665 5.83331ZM11.1665 2.53997V3.33331C11.1665 4.55331 11.4465 4.83331 12.6665 4.83331H13.4598L11.1665 2.53997Z" fill="white"/>
</svg>
