<svg width="40" height="40" viewBox="0 0 40 40" fill="none" xmlns="http://www.w3.org/2000/svg">
<g clip-path="url(#clip0_2_1938)">
<path d="M20.0007 40C18.8339 40 17.6679 39.6644 16.6544 38.994C13.7543 37.0756 11.6775 34.9906 10.3055 32.6201C8.96815 30.3096 8.25782 27.6712 8.14352 24.5781C4.73625 20.1193 4.70055 13.9043 8.07844 9.39555C9.02292 8.13497 10.1743 7.0776 11.5007 6.25281L14.8321 4.18128C15.3412 1.79528 17.4655 0 20.0012 0C21.3354 0 22.6097 0.498841 23.5893 1.40464L28.8235 6.24438C29.0611 6.46407 29.0756 6.83478 28.8559 7.07244C28.6361 7.31003 28.2654 7.32456 28.0278 7.10487L22.7937 2.26514C22.0313 1.56012 21.0395 1.1719 20.0012 1.1719C17.7333 1.1719 15.8882 3.01703 15.8882 5.28506C15.8882 6.0425 16.0955 6.78252 16.4879 7.42511C16.6565 7.70129 16.5694 8.06192 16.2932 8.2306C16.0169 8.3992 15.6564 8.31201 15.4878 8.03583C15.0423 7.30628 14.7822 6.4797 14.7273 5.62663L12.1196 7.24807C10.9173 7.99567 9.87325 8.9546 9.01644 10.0983C9.01487 10.1003 9.01339 10.1023 9.0119 10.1043C9.01097 10.1056 9.0098 10.1071 9.00886 10.1084C9.00831 10.1092 9.00792 10.1096 9.00737 10.1103C6.30754 13.7239 6.02253 18.5512 8.13009 22.4124C8.1754 20.2566 8.77838 17.7576 12.2852 15.3116C13.3176 14.5915 16.6147 12.4122 18.9318 10.8906C18.3595 10.519 17.7573 10.1287 17.1239 9.71892C16.8522 9.54313 16.7744 9.18039 16.9502 8.90866C17.1259 8.63686 17.4888 8.55912 17.7605 8.73499C22.8019 11.9966 25.8726 14.0249 27.7173 15.3116C31.2242 17.7576 31.8272 20.2565 31.8725 22.4123C33.9821 18.5467 33.6941 13.7128 30.986 10.0982C30.5685 9.54095 30.1165 9.03609 29.6425 8.5978C29.4049 8.3781 29.3904 8.00739 29.6101 7.76973C29.8298 7.53207 30.2005 7.51753 30.4381 7.73731C30.9641 8.22372 31.464 8.78155 31.924 9.39547C35.2983 13.8994 35.2646 20.1211 31.8587 24.5784C31.7118 28.4949 30.5964 31.7364 28.4616 34.4638C28.2622 34.7186 27.8939 34.7636 27.6391 34.5641C27.3842 34.3646 27.3394 33.9963 27.5388 33.7416C29.698 30.983 30.7036 27.7838 30.7036 23.6733V22.7003C30.7036 20.6866 30.2606 18.5141 27.047 16.2727C25.594 15.2592 23.3697 13.7789 20.0049 11.5881C17.2678 13.3832 13.9235 15.5977 12.9557 16.2727C9.74208 18.5142 9.2991 20.6866 9.2991 22.7003V23.6733C9.2991 26.9492 9.96013 29.6836 11.3199 32.033C12.5991 34.2431 14.5556 36.2003 17.3012 38.0165C18.9174 39.0857 21.0152 39.0997 22.6458 38.0524L22.7076 38.0126C24.086 37.1007 25.1433 36.2738 26.029 35.4143C26.2612 35.1889 26.6322 35.1944 26.8575 35.4266C27.0829 35.6589 27.0774 36.0298 26.8452 36.2551C25.906 37.1666 24.7948 38.0369 23.3482 38.9939L23.2798 39.038C22.2807 39.6797 21.1403 39.9999 20.0007 40ZM20.0012 36.4208C19.0289 36.4208 18.1891 36.1722 17.3582 35.6387C17.0859 35.4639 17.0069 35.1014 17.1818 34.829C17.3568 34.5567 17.7192 34.4778 17.9915 34.6526C18.6336 35.065 19.2534 35.2489 20.0012 35.2489C20.749 35.2489 21.3689 35.065 22.0109 34.6527C22.2833 34.4779 22.6457 34.5569 22.8206 34.8291C22.9955 35.1014 22.9165 35.4639 22.6442 35.6388C21.8134 36.1722 20.9735 36.4208 20.0012 36.4208ZM22.2404 33.4682H17.761C16.8283 33.4682 15.9227 33.0732 15.2764 32.3844C15.055 32.1484 15.0667 31.7776 15.3028 31.5562C15.5388 31.3348 15.9096 31.3465 16.131 31.5825C16.5566 32.0361 17.1507 32.2963 17.7609 32.2963H22.2404C22.8512 32.2963 23.4457 32.0361 23.8713 31.5825C24.0928 31.3466 24.4636 31.3349 24.6996 31.5562C24.9356 31.7776 24.9474 32.1485 24.7259 32.3845C24.0798 33.0732 23.1738 33.4682 22.2404 33.4682ZM20.0012 30.5413C18.2796 30.5413 17.4756 29.3003 17.4423 29.2474C17.2695 28.9739 17.3511 28.6119 17.6246 28.439C17.8966 28.267 18.2561 28.3469 18.4301 28.6168C18.4573 28.6574 18.9496 29.3693 20.0013 29.3693C21.0672 29.3693 21.565 28.6288 21.5697 28.6213C21.7426 28.3477 22.1046 28.2661 22.3781 28.439C22.6516 28.6119 22.7333 28.9738 22.5604 29.2474C22.5268 29.3004 21.7228 30.5413 20.0012 30.5413ZM25.4339 26.9448C23.0934 26.9448 21.1894 25.0407 21.1894 22.7003C21.1894 20.36 23.0935 18.4559 25.4339 18.4559C27.7742 18.4559 29.6784 20.3599 29.6784 22.7003C29.6784 25.0408 27.7743 26.9448 25.4339 26.9448ZM25.4339 19.6278C23.7396 19.6278 22.3613 21.0062 22.3613 22.7003C22.3613 24.3946 23.7397 25.7729 25.4339 25.7729C27.1281 25.7729 28.5065 24.3945 28.5065 22.7003C28.5065 21.0062 27.1281 19.6278 25.4339 19.6278ZM14.5685 26.9448C12.2281 26.9448 10.324 25.0407 10.324 22.7003C10.324 20.36 12.2281 18.4559 14.5685 18.4559C16.909 18.4559 18.813 20.3599 18.813 22.7003C18.813 25.0408 16.909 26.9448 14.5685 26.9448ZM14.5685 19.6278C12.8743 19.6278 11.496 21.0062 11.496 22.7003C11.496 24.3946 12.8743 25.7729 14.5685 25.7729C16.2628 25.7729 17.6411 24.3945 17.6411 22.7003C17.6411 21.0062 16.2628 19.6278 14.5685 19.6278ZM25.4339 24.601C25.1103 24.601 24.8479 24.3387 24.8479 24.0151V23.7982C24.8479 23.4746 25.1103 23.2122 25.4339 23.2122C25.7575 23.2122 26.0198 23.4746 26.0198 23.7982V24.0151C26.0198 24.3387 25.7576 24.601 25.4339 24.601ZM14.5685 24.601C14.2449 24.601 13.9826 24.3387 13.9826 24.0151V23.7982C13.9826 23.4746 14.2449 23.2122 14.5685 23.2122C14.8921 23.2122 15.1545 23.4746 15.1545 23.7982V24.0151C15.1545 24.3387 14.8921 24.601 14.5685 24.601ZM15.5198 22.7375C15.3173 22.7375 15.1204 22.6325 15.0119 22.4445C14.85 22.1642 14.946 21.8059 15.2263 21.6441L15.414 21.5356C15.6942 21.3738 16.0526 21.4697 16.2145 21.75C16.3764 22.0302 16.2804 22.3886 16.0001 22.5504L15.8124 22.6589C15.72 22.7121 15.6193 22.7375 15.5198 22.7375ZM26.3851 22.7375C26.1826 22.7375 25.9857 22.6325 25.8772 22.4445C25.7154 22.1642 25.8114 21.8059 26.0916 21.6441L26.2794 21.5356C26.5596 21.3739 26.9181 21.4698 27.0799 21.7501C27.2417 22.0303 27.1456 22.3887 26.8654 22.5505L26.6776 22.6589C26.5854 22.7121 26.4846 22.7375 26.3851 22.7375ZM24.4826 22.7375C24.3832 22.7375 24.2824 22.7122 24.1902 22.6589L24.0024 22.5505C23.7221 22.3887 23.6261 22.0303 23.7879 21.7501C23.9497 21.4698 24.308 21.3737 24.5883 21.5356L24.7761 21.6441C25.0564 21.8059 25.1524 22.1642 24.9906 22.4445C24.8821 22.6325 24.6851 22.7375 24.4826 22.7375ZM13.6173 22.7375C13.5179 22.7375 13.4171 22.7122 13.3248 22.6589L13.137 22.5505C12.8568 22.3887 12.7607 22.0303 12.9225 21.7501C13.0843 21.4698 13.4426 21.3737 13.723 21.5356L13.9108 21.6441C14.191 21.8059 14.287 22.1642 14.1252 22.4445C14.0167 22.6325 13.8198 22.7375 13.6173 22.7375Z" fill="#8A4242"/>
</g>
<defs>
<clipPath id="clip0_2_1938">
<rect width="40" height="40" fill="white"/>
</clipPath>
</defs>
</svg>
