<svg width="18" height="18" viewBox="0 0 18 18" fill="none" xmlns="http://www.w3.org/2000/svg">
<mask id="mask0_2_2360" style="mask-type:luminance" maskUnits="userSpaceOnUse" x="0" y="0" width="18" height="18">
<path d="M0 0H18V18H0V0Z" fill="white"/>
</mask>
<g mask="url(#mask0_2_2360)">
<path d="M9 14.2734C11.9076 14.2734 14.2734 11.9076 14.2734 9C14.2734 6.0924 11.9076 3.72656 9 3.72656C6.0924 3.72656 3.72656 6.0924 3.72656 9C3.72656 11.9076 6.0924 14.2734 9 14.2734Z" stroke="#8A4242" stroke-width="1.05469" stroke-miterlimit="10" stroke-linecap="round" stroke-linejoin="round"/>
<path d="M14.1675 8.47257H13.2188C11.8681 8.47257 10.5729 9.00909 9.61783 9.96411C9.22225 10.3597 9.00003 10.8962 9.00003 11.4557C9.00003 10.8962 8.77777 10.3597 8.38216 9.96411C7.42714 9.00909 6.13188 8.47257 4.78128 8.47257H3.83252" stroke="#8A4242" stroke-width="1.05469" stroke-miterlimit="10" stroke-linecap="round" stroke-linejoin="round"/>
<path d="M3.75244 8.47253C6.89038 8.47253 6.89038 7.41788 8.99972 7.41788C11.1091 7.41788 11.1091 8.47253 14.247 8.47253" stroke="#8A4242" stroke-width="1.05469" stroke-miterlimit="10" stroke-linecap="round" stroke-linejoin="round"/>
<path d="M9 11.1094V14.2734" stroke="#8A4242" stroke-width="1.05469" stroke-miterlimit="10" stroke-linecap="round" stroke-linejoin="round"/>
<path d="M13.6426 16.0474C15.9534 14.5217 17.4726 11.9164 17.4726 8.99998" stroke="#8A4242" stroke-width="1.05469" stroke-miterlimit="10" stroke-linecap="round" stroke-linejoin="round"/>
<path d="M15.6542 2.22946L14.1901 2.3505L14.1709 3.72778" stroke="#8A4242" stroke-width="1.05469" stroke-miterlimit="10" stroke-linecap="round" stroke-linejoin="round"/>
<path d="M17.4724 9C17.4808 6.44242 16.2245 3.90871 14.1899 2.35055" stroke="#8A4242" stroke-width="1.05469" stroke-miterlimit="10" stroke-linecap="round" stroke-linejoin="round"/>
<path d="M2.34521 15.7705L3.80933 15.6495L3.82856 14.2722" stroke="#8A4242" stroke-width="1.05469" stroke-miterlimit="10" stroke-linecap="round" stroke-linejoin="round"/>
<path d="M3.80978 15.6494C1.81603 14.0911 0.527344 11.678 0.527344 8.99996C0.527344 6.09437 2.03787 3.48405 4.35737 1.95257" stroke="#8A4242" stroke-width="1.05469" stroke-miterlimit="10" stroke-linecap="round" stroke-linejoin="round"/>
</g>
</svg>
