<svg width="18" height="18" viewBox="0 0 18 18" fill="none" xmlns="http://www.w3.org/2000/svg">
<path d="M16.5 12.7515C16.4997 13.7772 16.1491 14.772 15.5063 15.5712C14.8635 16.3705 13.967 16.9262 12.9653 17.1465C11.9635 17.3668 11.5 16 12.4867 15.711C13.4735 15.422 13.3416 15.4704 13.7068 15.2177C14.0721 14.9651 14.3767 14.6346 14.5988 14.25H12.75C12.3522 14.25 11.9706 14.092 11.6893 13.8107C11.408 13.5294 11.25 13.1478 11.25 12.75V9.75C11.25 9.35218 11.408 8.97064 11.6893 8.68934C11.9706 8.40804 12.3522 8.25 12.75 8.25H14.9535C14.7705 6.80017 14.0647 5.46695 12.9686 4.50051C11.8724 3.53406 10.4613 3.00081 9 3.00081C7.53866 3.00081 6.12755 3.53406 5.03143 4.50051C3.93531 5.46695 3.22952 6.80017 3.0465 8.25H5.25C5.64782 8.25 6.02936 8.40804 6.31066 8.68934C6.59196 8.97064 6.75 9.35218 6.75 9.75V12.75C6.75 13.1478 6.59196 13.5294 6.31066 13.8107C6.02936 14.092 5.64782 14.25 5.25 14.25H3C2.60218 14.25 2.22064 14.092 1.93934 13.8107C1.65804 13.5294 1.5 13.1478 1.5 12.75V9C1.5 4.85775 4.85775 1.5 9 1.5C13.1423 1.5 16.5 4.85775 16.5 9V12.7515ZM15 12.75V9.75H12.75V12.75H15ZM3 9.75V12.75H5.25V9.75H3Z" fill="#8A4242"/>
</svg>
