<svg width="40" height="40" viewBox="0 0 40 40" fill="none" xmlns="http://www.w3.org/2000/svg">
<path d="M6.92105 37.8393H0.586172C0.262371 37.8393 0 37.5769 0 37.2531C0 36.9293 0.262371 36.6669 0.586172 36.6669H6.92105C10.7681 36.6669 13.6834 36.2122 15.8335 35.2768C17.6449 34.4888 18.962 33.3622 19.9182 31.7696H12.9463C10.7038 31.7696 8.95499 29.8649 8.7242 27.263H0.586172C0.262371 27.263 0 27.0006 0 26.6768C0 26.353 0.262371 26.0907 0.586172 26.0907H9.2845C12.1282 26.0907 14.6188 25.089 16.487 23.1939L20.8114 18.7974L18.2604 16.2291C18.1239 16.0917 18.0641 15.8956 18.1007 15.7053C18.1373 15.515 18.2656 15.3552 18.4434 15.2781C18.9909 15.0411 19.5095 14.8187 20.0035 14.6067C22.2659 13.6362 24.053 12.8696 25.7006 11.9393C25.9825 11.7804 26.3402 11.8797 26.4993 12.1616C26.6584 12.4435 26.559 12.801 26.277 12.9603C24.5739 13.9219 22.761 14.6995 20.4658 15.6842C20.2165 15.7911 19.961 15.9007 19.6987 16.0135L26.1184 22.4768C28.8643 16.1658 30.3651 13.2076 35.3584 8.21429L38.5344 5.03833C38.7353 4.83739 38.8418 4.55931 38.8264 4.27529C38.8108 3.98752 38.6769 3.7282 38.4492 3.545C38.0591 3.23128 37.4603 3.2788 37.0859 3.65325L33.91 6.8292C31.7443 8.99484 30.0291 10.4839 28.3484 11.6573C28.0828 11.8428 27.7174 11.7777 27.5322 11.5123C27.3469 11.2469 27.4118 10.8815 27.6772 10.6961C29.2994 9.56358 30.9659 8.11535 33.0809 6.00028L36.2567 2.82409C37.0616 2.01939 38.32 1.93662 39.1837 2.63143C39.6672 3.02026 39.9636 3.59635 39.9968 4.21191C40.0301 4.82786 39.7992 5.43122 39.3633 5.86718L36.1871 9.04322C31.1412 14.0892 29.7593 17.017 26.8497 23.7362C26.7724 23.9146 26.6116 24.0432 26.4205 24.0793C26.2296 24.1151 26.0328 24.0544 25.8958 23.9164L23.2897 21.2926C22.5997 21.9918 20.9283 23.6821 18.9547 25.6558C18.8049 25.8055 18.66 25.9505 18.5197 26.0907H23.1504C23.8875 26.0907 24.4873 26.6897 24.4876 27.426C24.4879 28.5128 24.1994 29.5352 23.6753 30.3052C23.0937 31.1593 22.267 31.6544 21.269 31.7518C19.0689 36.0141 14.7486 37.8393 6.92105 37.8393ZM9.90279 27.2478C10.0962 28.9516 11.1568 30.5972 12.9462 30.5972H20.8852C20.893 30.597 20.9009 30.597 20.9088 30.5972C21.6737 30.594 22.2783 30.2737 22.7063 29.6452C23.0936 29.0764 23.3156 28.2676 23.3153 27.4263C23.3153 27.3362 23.2413 27.2629 23.1504 27.2629H17.3466C15.8749 28.7327 15.1872 29.4166 15.1783 29.4254C14.9488 29.6537 14.5776 29.6526 14.3494 29.423C14.1211 29.1934 14.1222 28.8222 14.3518 28.5941C14.3628 28.5831 15.4158 27.5361 17.7112 25.2412L16.8957 24.4255C15.0176 26.1291 12.5727 27.1158 9.90279 27.2478ZM17.73 23.6019L18.5402 24.4121C20.3369 22.6129 21.8283 21.1045 22.4636 20.4607L21.6376 19.629L17.73 23.6019Z" fill="#8A4242"/>
</svg>
