<svg width="40" height="40" viewBox="0 0 40 40" fill="none" xmlns="http://www.w3.org/2000/svg">
<g clip-path="url(#clip0_2_1928)">
<path d="M32.0358 40.0004C31.7437 40.0004 31.4908 39.7821 31.4549 39.4848L31.1761 37.1812C31.1372 36.8599 31.3661 36.5679 31.6873 36.5291C32.0077 36.4904 32.3006 36.7191 32.3394 37.0403L32.6182 39.3439C32.6572 39.6652 32.4282 39.9572 32.107 39.996C32.0832 39.9989 32.0593 40.0004 32.0358 40.0004ZM7.96408 40.0004C7.94056 40.0004 7.91689 39.9989 7.89291 39.996C7.57166 39.9572 7.34275 39.6652 7.38166 39.3439L8.26837 32.0181L6.4287 23.4179C6.36104 23.1014 6.56268 22.79 6.87909 22.7224C7.19541 22.6547 7.50697 22.8562 7.57463 23.1728L9.43485 31.8688C9.44844 31.9323 9.45133 31.9974 9.44352 32.0619L8.54501 39.4849C8.50907 39.7821 8.25626 40.0004 7.96408 40.0004ZM19.9996 37.6968C19.9163 37.6968 19.8317 37.6789 19.7512 37.6413L18.5127 37.0605C18.2196 36.9231 18.0935 36.5742 18.2309 36.2812C18.3683 35.9881 18.7171 35.8619 19.0102 35.9994L20.2487 36.5802C20.5417 36.7176 20.6678 37.0665 20.5305 37.3595C20.4308 37.5721 20.2198 37.6968 19.9996 37.6968ZM31.4887 35.4807C31.1966 35.4807 30.9437 35.2625 30.9078 34.9651L30.5564 32.0617C30.5486 31.9973 30.5515 31.9321 30.5651 31.8686L34.7319 12.3893C34.7702 12.2101 34.8902 12.0591 35.0561 11.9813L39.1651 10.0547C39.458 9.91739 39.8069 10.0435 39.9444 10.3365C40.0817 10.6295 39.9556 10.9784 39.6626 11.1158L35.8171 12.9189L31.7316 32.0181L32.0712 34.8243C32.1101 35.1456 31.8812 35.4376 31.56 35.4764C31.5361 35.4792 31.5122 35.4807 31.4887 35.4807ZM20 35.0994C19.6763 35.0994 19.4141 34.8371 19.4141 34.5135V34.2019L18.5127 33.7793C18.2197 33.6419 18.0936 33.293 18.2309 33C18.3684 32.7069 18.7172 32.5808 19.0102 32.7183L19.4561 32.9273C19.5426 32.7118 19.7536 32.5596 20.0001 32.5596C20.3237 32.5596 20.586 32.8218 20.586 33.1455V34.5135C20.5859 34.8371 20.3236 35.0994 20 35.0994ZM19.9996 31.1344C19.9163 31.1344 19.8317 31.1165 19.7512 31.0788L18.5127 30.498C18.3003 30.3985 18.1756 30.1878 18.1753 29.968C18.1752 29.8844 18.1931 29.7994 18.2309 29.7188C18.3683 29.4257 18.7171 29.2996 19.0102 29.437L20.2487 30.0178C20.461 30.1173 20.5857 30.328 20.586 30.5479C20.5861 30.6315 20.5682 30.7164 20.5305 30.797C20.4308 31.0097 20.2198 31.1344 19.9996 31.1344ZM19.9996 27.8531C19.9163 27.8531 19.8317 27.8352 19.7512 27.7976L18.5127 27.2168C18.2196 27.0794 18.0935 26.7305 18.2309 26.4375C18.3683 26.1444 18.7171 26.0184 19.0102 26.1557L20.2487 26.7365C20.5417 26.8739 20.6678 27.2228 20.5305 27.5158C20.4308 27.7284 20.2198 27.8531 19.9996 27.8531ZM19.9996 24.5719C19.9163 24.5719 19.8317 24.554 19.7512 24.5164L18.5127 23.9356C18.2196 23.7982 18.0935 23.4493 18.2309 23.1563C18.3683 22.8632 18.7171 22.7371 19.0102 22.8745L20.2487 23.4553C20.5417 23.5927 20.6678 23.9416 20.5305 24.2346C20.4308 24.4472 20.2198 24.5719 19.9996 24.5719ZM24.124 21.5227C23.9038 21.5227 23.6928 21.3979 23.5931 21.1854C23.4557 20.8924 23.5818 20.5435 23.8749 20.4061C27.9974 18.4732 30.2314 16.3177 30.2314 10.4731C30.2314 10.2458 30.3629 10.039 30.5686 9.94255L32.5814 8.99881C32.8742 8.86146 33.2232 8.98748 33.3607 9.2806C33.498 9.57357 33.3719 9.92247 33.0789 10.0599L31.4004 10.8468C31.3551 13.6896 30.7867 15.807 29.6216 17.4875C28.543 19.0433 26.9242 20.2707 24.3724 21.4671C24.2919 21.5048 24.2073 21.5227 24.124 21.5227ZM15.876 21.5227C15.7927 21.5227 15.7081 21.5048 15.6276 21.4672C13.0758 20.2708 11.4569 19.0433 10.3784 17.4876C9.74812 16.5784 9.29243 15.5415 8.99977 14.331L7.41861 15.0724C7.12565 15.2098 6.77682 15.0836 6.63932 14.7906C6.50198 14.4976 6.62807 14.1487 6.92112 14.0113L8.77259 13.1432C8.7479 12.9724 8.72571 12.7987 8.70626 12.6216H6.64713C6.32346 12.6216 6.0612 12.3593 6.0612 12.0357C6.0612 11.712 6.32346 11.4497 6.64713 11.4497H8.61759C8.60884 11.2526 8.6029 11.0515 8.5997 10.8469L6.92119 10.06C6.62815 9.92255 6.50206 9.57364 6.6394 9.28068C6.7769 8.98756 7.12572 8.86154 7.41869 8.99888L9.43149 9.94263C9.63727 10.0391 9.76867 10.2459 9.76867 10.4732C9.76867 16.3178 12.0027 18.4732 16.1252 20.4061C16.4182 20.5436 16.5443 20.8925 16.407 21.1854C16.3071 21.3979 16.0961 21.5227 15.876 21.5227ZM6.49651 21.5227C6.22604 21.5227 5.983 21.3343 5.92417 21.0592L4.18286 12.9189L0.337342 11.1159C0.0442976 10.9785 -0.0817951 10.6296 0.0555475 10.3366C0.192968 10.0435 0.541794 9.91747 0.834838 10.0548L4.94379 11.9814C5.10972 12.0592 5.22972 12.2102 5.268 12.3894L7.0701 20.8141C7.13776 21.1305 6.93612 21.4419 6.61963 21.5096C6.57838 21.5184 6.53714 21.5227 6.49651 21.5227ZM19.9996 21.2907C19.9163 21.2907 19.8317 21.2728 19.7512 21.2351L18.5127 20.6543C18.2196 20.5169 18.0935 20.168 18.2309 19.8751C18.3683 19.5819 18.7171 19.4558 19.0102 19.5933L20.2487 20.174C20.5417 20.3115 20.6678 20.6604 20.5305 20.9533C20.4308 21.166 20.2198 21.2907 19.9996 21.2907ZM20 19.0193C19.6763 19.0193 19.4141 18.757 19.4141 18.4333V17.6395L18.5127 17.217C18.2197 17.0795 18.0936 16.7306 18.2309 16.4377C18.3684 16.1445 18.7172 16.0185 19.0102 16.1559L19.4141 16.3452V14.2021L18.5128 13.7795C18.2198 13.6421 18.0937 13.2932 18.231 13.0002C18.3684 12.7071 18.7173 12.581 19.0103 12.7184L19.4142 12.9078V12.0357C19.4142 11.712 19.6765 11.4497 20.0001 11.4497C20.3238 11.4497 20.5861 11.712 20.5861 12.0357V18.4334C20.5859 18.757 20.3236 19.0193 20 19.0193ZM17.1871 18.8688C17.1038 18.8688 17.0192 18.8509 16.9387 18.8133L15.7002 18.2325C15.4071 18.0951 15.281 17.7462 15.4184 17.4532C15.5558 17.1601 15.9046 17.034 16.1977 17.1714L17.4363 17.7522C17.7292 17.8896 17.8553 18.2385 17.718 18.5315C17.6184 18.7441 17.4073 18.8688 17.1871 18.8688ZM14.3746 16.447C14.2914 16.447 14.2068 16.4291 14.1262 16.3914L12.8877 15.8106C12.5947 15.6732 12.4686 15.3243 12.6059 15.0313C12.7433 14.7382 13.0922 14.6121 13.3852 14.7495L14.6238 15.3303C14.9168 15.4677 15.0428 15.8166 14.9055 16.1096C14.8059 16.3223 14.5948 16.447 14.3746 16.447ZM17.1871 15.4313C17.1038 15.4313 17.0192 15.4134 16.9387 15.3758L15.7002 14.795C15.4071 14.6576 15.281 14.3087 15.4184 14.0157C15.5558 13.7226 15.9046 13.5966 16.1977 13.7339L17.4363 14.3147C17.7292 14.4521 17.8553 14.801 17.718 15.094C17.6184 15.3067 17.4073 15.4313 17.1871 15.4313ZM14.3746 13.0095C14.2914 13.0095 14.2068 12.9916 14.1262 12.9539L12.8877 12.3732C12.5947 12.2357 12.4686 11.8868 12.6059 11.5939C12.7433 11.3007 13.0922 11.1746 13.3852 11.3121L14.6238 11.8928C14.9168 12.0303 15.0428 12.3792 14.9055 12.6721C14.8059 12.8848 14.5948 13.0095 14.3746 13.0095ZM17.1871 11.9939C17.1038 11.9939 17.0192 11.976 16.9387 11.9383L15.7002 11.3575C15.4071 11.2201 15.281 10.8712 15.4184 10.5782C15.5558 10.2851 15.9046 10.159 16.1977 10.2965L17.4363 10.8772C17.7292 11.0147 17.8553 11.3636 17.718 11.6565C17.6184 11.8692 17.4073 11.9939 17.1871 11.9939ZM22.8129 8.95638C22.5926 8.95638 22.3816 8.83162 22.2819 8.61904C22.1446 8.32608 22.2707 7.97717 22.5637 7.83975L25.0553 6.67156C24.7159 6.22546 24.5252 5.67477 24.5252 5.09977V0.586519C24.5252 0.262849 24.7875 0.000585505 25.1111 0.000585505C25.4348 0.000585505 25.6971 0.262849 25.6971 0.586519V5.09985C25.6971 5.3561 25.7661 5.60352 25.8919 5.81851C26.9339 3.69118 28.8617 2.11463 31.1914 1.52675C31.5053 1.44753 31.8236 1.63776 31.9029 1.95159C31.982 2.26541 31.7918 2.58393 31.478 2.66307C29.2387 3.22806 27.4336 4.86016 26.6494 7.02898C26.5966 7.17507 26.4878 7.29429 26.3471 7.36022L23.0611 8.90092C22.9807 8.93857 22.8961 8.95638 22.8129 8.95638ZM17.1871 8.95638C17.1038 8.95638 17.0192 8.93849 16.9388 8.90084L13.6527 7.36014C13.512 7.29413 13.4032 7.17499 13.3504 7.0289C12.0508 3.43478 8.06962 1.56831 4.47551 2.86768C4.32926 2.92049 4.16809 2.91314 4.02755 2.84721L0.337342 1.11706C0.0442976 0.979641 -0.0817951 0.630737 0.0555475 0.337771C0.192968 0.0446477 0.541794 -0.0814452 0.834838 0.0559758L4.31004 1.68542C8.16923 0.419723 12.3508 2.22682 14.1082 5.8182C14.2339 5.60328 14.3029 5.35594 14.3029 5.09977V0.586519C14.3029 0.262849 14.5652 0.000585505 14.8889 0.000585505C15.2125 0.000585505 15.4748 0.262849 15.4748 0.586519V5.09985C15.4748 5.67484 15.2841 6.22554 14.9446 6.67163L17.4363 7.83983C17.7293 7.97725 17.8554 8.32615 17.7181 8.61912C17.6184 8.8317 17.4073 8.95638 17.1871 8.95638ZM35.7237 2.90267C35.6564 2.90267 35.5889 2.89111 35.5244 2.86775C34.9064 2.64432 34.2641 2.50955 33.6153 2.46729C33.2923 2.44619 33.0475 2.16737 33.0686 1.84448C33.0897 1.52143 33.3707 1.27659 33.6914 1.29784C34.3691 1.34198 35.0402 1.47222 35.6899 1.68542L39.1651 0.0559758C39.4581 -0.0814452 39.8069 0.0447258 39.9444 0.337771C40.0818 0.630737 39.9557 0.979641 39.6626 1.11706L35.9724 2.84728C35.8938 2.88416 35.8088 2.90267 35.7237 2.90267Z" fill="#8A4242"/>
</g>
<defs>
<clipPath id="clip0_2_1928">
<rect width="40" height="40" fill="white"/>
</clipPath>
</defs>
</svg>
