<svg width="40" height="40" viewBox="0 0 40 40" fill="none" xmlns="http://www.w3.org/2000/svg">
<g clip-path="url(#clip0_2_1949)">
<path d="M29.7315 36.0937H10.2685C9.16047 36.0937 8.08266 35.6347 7.31117 34.8342C5.11281 32.5533 0 26.3893 0 18.4347C0 17.5826 0.427266 16.7977 1.14281 16.3352L3.125 15.054V11.8574C3.125 10.8881 3.91359 10.0996 4.88281 10.0996H13.8241C15.71 7.95982 17.8563 7.00294 20.7531 7.00294C21.0768 7.00294 21.3391 7.26528 21.3391 7.58888C21.3391 7.91247 21.0768 8.17482 20.7531 8.17482C18.6057 8.17482 16.9304 8.77614 15.4659 10.0996H31.8831C31.2991 8.13411 29.5448 6.12552 27.5736 5.19919C26.3087 6.59271 24.8937 7.47286 23.26 7.88482C22.9463 7.9638 22.6277 7.77372 22.5486 7.45997C22.4695 7.14622 22.6597 6.82771 22.9734 6.74857C24.5071 6.36185 25.7757 5.52474 26.9659 4.11435C27.128 3.92224 27.3946 3.85489 27.6284 3.947C30.2065 4.96239 32.4807 7.54974 33.0962 10.0996H35.1172C36.0864 10.0996 36.875 10.8881 36.875 11.8574V15.054L38.8572 16.3352C39.5723 16.7976 39.9996 17.5788 40 18.4252C40.0013 20.8204 39.5385 23.2509 38.6247 25.649C38.5095 25.9514 38.1712 26.1033 37.8684 25.9879C37.5661 25.8727 37.4143 25.5342 37.5295 25.2318C38.3165 23.1665 38.7491 21.0801 38.8182 19.0206H21.9803C21.6566 19.0206 21.3944 18.7583 21.3944 18.4347C21.3944 18.1111 21.6566 17.8487 21.9803 17.8487H38.6939C38.5897 17.6369 38.4281 17.4532 38.2211 17.3194L36.1162 15.959H3.88383L1.77898 17.3194C1.57273 17.4527 1.41172 17.6364 1.30742 17.8487H19.6366C19.9602 17.8487 20.2225 18.1111 20.2225 18.4347C20.2225 18.7583 19.9602 19.0206 19.6366 19.0206H1.18172C1.42508 26.2666 6.11016 31.8993 8.15492 34.021C8.70672 34.5935 9.47703 34.9218 10.2685 34.9218H29.7315C30.5228 34.9218 31.292 34.5947 31.8419 34.0243C32.9587 32.8659 35.0702 30.4408 36.6625 27.2154C36.8058 26.9251 37.1573 26.8061 37.4473 26.9493C37.7375 27.0926 37.8566 27.444 37.7134 27.7341C36.1341 30.9332 34.1075 33.3628 32.6855 34.8377C31.9159 35.636 30.8392 36.0937 29.7315 36.0937ZM4.29688 14.7871H35.7031V11.8574C35.7031 11.5343 35.4403 11.2715 35.1172 11.2715H4.88281C4.55969 11.2715 4.29688 11.5343 4.29688 11.8574V12.4433H33.9453C34.269 12.4433 34.5312 12.7057 34.5312 13.0293C34.5312 13.3529 34.269 13.6152 33.9453 13.6152H4.29688V14.7871ZM20 32.5781C17.7631 32.5781 15.9434 30.7583 15.9434 28.5215C15.9434 26.7229 16.9476 24.5882 19.1038 21.8036C19.32 21.5245 19.6466 21.3643 20 21.3643C20.3534 21.3643 20.68 21.5244 20.8962 21.8036C23.0524 24.5882 24.0566 26.7228 24.0566 28.5215C24.0566 30.7583 22.2369 32.5781 20 32.5781ZM20 22.5604C18.059 25.0746 17.1152 27.0249 17.1152 28.5215C17.1152 30.1122 18.4094 31.4062 20 31.4062C21.5906 31.4062 22.8848 30.1122 22.8848 28.5215C22.8848 27.0249 21.941 25.0747 20 22.5604ZM19.9696 22.5211C19.9696 22.5211 19.9697 22.5211 19.9696 22.5211C19.9696 22.5211 19.9696 22.5211 19.9696 22.5211Z" fill="#8A4242"/>
</g>
<defs>
<clipPath id="clip0_2_1949">
<rect width="40" height="40" fill="white"/>
</clipPath>
</defs>
</svg>
