<svg width="18" height="18" viewBox="0 0 18 18" fill="none" xmlns="http://www.w3.org/2000/svg">
<path d="M13.2148 7.21497H9.27734C8.96984 7.21497 8.71484 6.95997 8.71484 6.65247C8.71484 6.34497 8.96984 6.08997 9.27734 6.08997H13.2148C13.5223 6.08997 13.7773 6.34497 13.7773 6.65247C13.7773 6.95997 13.5298 7.21497 13.2148 7.21497Z" fill="#8A4242"/>
<path d="M5.33992 7.78499C5.19742 7.78499 5.05492 7.73249 4.94242 7.61999L4.37992 7.05749C4.16242 6.83999 4.16242 6.47999 4.37992 6.26249C4.59742 6.04499 4.95742 6.04499 5.17492 6.26249L5.33992 6.42749L6.62992 5.13749C6.84742 4.91999 7.20742 4.91999 7.42492 5.13749C7.64242 5.35499 7.64242 5.71499 7.42492 5.93249L5.73742 7.61999C5.63242 7.72499 5.48992 7.78499 5.33992 7.78499Z" fill="#8A4242"/>
<path d="M13.2148 12.465H9.27734C8.96984 12.465 8.71484 12.21 8.71484 11.9025C8.71484 11.595 8.96984 11.34 9.27734 11.34H13.2148C13.5223 11.34 13.7773 11.595 13.7773 11.9025C13.7773 12.21 13.5298 12.465 13.2148 12.465Z" fill="#8A4242"/>
<path d="M5.33992 13.035C5.19742 13.035 5.05492 12.9825 4.94242 12.87L4.37992 12.3075C4.16242 12.09 4.16242 11.73 4.37992 11.5125C4.59742 11.295 4.95742 11.295 5.17492 11.5125L5.33992 11.6775L6.62992 10.3875C6.84742 10.17 7.20742 10.17 7.42492 10.3875C7.64242 10.605 7.64242 10.965 7.42492 11.1825L5.73742 12.87C5.63242 12.975 5.48992 13.035 5.33992 13.035Z" fill="#8A4242"/>
<path d="M11.25 17.0625H6.75C2.6775 17.0625 0.9375 15.3225 0.9375 11.25V6.75C0.9375 2.6775 2.6775 0.9375 6.75 0.9375H11.25C15.3225 0.9375 17.0625 2.6775 17.0625 6.75V11.25C17.0625 15.3225 15.3225 17.0625 11.25 17.0625ZM6.75 2.0625C3.2925 2.0625 2.0625 3.2925 2.0625 6.75V11.25C2.0625 14.7075 3.2925 15.9375 6.75 15.9375H11.25C14.7075 15.9375 15.9375 14.7075 15.9375 11.25V6.75C15.9375 3.2925 14.7075 2.0625 11.25 2.0625H6.75Z" fill="#8A4242"/>
</svg>
