<svg width="40" height="40" viewBox="0 0 40 40" fill="none" xmlns="http://www.w3.org/2000/svg">
<g clip-path="url(#clip0_2_1923)">
<path d="M27.4107 39.3995C24.2976 39.3995 21.2193 38.8301 18.2612 37.7071C15.4365 36.6347 12.498 36.091 9.52755 36.091C6.55709 36.091 3.61859 36.6347 0.793923 37.7071C0.613685 37.7755 0.411649 37.7509 0.25313 37.6415C0.0946895 37.5322 0 37.3519 0 37.1593V22.0111C0 21.7678 0.150472 21.5497 0.377977 21.4633C5.73973 19.4278 11.4602 19.2212 16.9209 20.866C17.2308 20.9593 17.4063 21.2862 17.313 21.5961C17.2197 21.9059 16.8928 22.0813 16.5829 21.9881C11.5 20.4572 6.18005 20.6074 1.17182 22.4189V36.3243C3.88508 35.3916 6.69194 34.9191 9.52747 34.9191C12.6406 34.9191 15.7189 35.4885 18.677 36.6115C21.5018 37.6838 24.4403 38.2276 27.4107 38.2276C30.249 38.2276 33.0577 37.7312 35.7663 36.7515V22.846C33.1065 23.7605 30.3555 24.2327 27.5762 24.2507C24.5212 24.2713 21.4938 23.7414 18.5799 22.6776C18.2759 22.5666 18.1194 22.2302 18.2305 21.9262C18.3414 21.6223 18.6774 21.4657 18.9818 21.5767C21.7641 22.5924 24.6526 23.0976 27.5686 23.0788C30.4853 23.0598 33.3706 22.5162 36.1443 21.4632C36.3246 21.3949 36.5266 21.4194 36.6851 21.5288C36.8435 21.6382 36.9382 21.8185 36.9382 22.0111V37.1592C36.9382 37.4026 36.7877 37.6206 36.5602 37.707C33.6022 38.8301 30.5239 39.3995 27.4107 39.3995ZM24.9897 35.2988C24.6798 35.2988 24.3636 35.2884 24.0418 35.2673C22.0054 35.134 20.06 34.4837 18.2611 33.8008C16.4712 33.1213 14.6204 32.4186 12.7795 32.1696L12.2785 32.1021C10.327 31.8403 8.64151 31.6141 7.41321 31.1347C5.92075 30.5523 5.19527 29.611 5.19527 28.257C5.19527 27.2478 5.60629 26.3295 6.38381 25.6011C7.73103 24.3392 10.1044 23.72 12.8964 23.9031C14.9326 24.0364 16.8781 24.6867 18.677 25.3696C20.4668 26.0491 22.3176 26.7517 24.1587 27.0009C24.4794 27.0442 24.7041 27.3394 24.6608 27.6601C24.6174 27.9807 24.3232 28.2057 24.0016 28.1621C22.0273 27.895 20.1128 27.1681 18.2611 26.4652C16.5474 25.8147 14.702 25.1957 12.8199 25.0725C10.3503 24.9108 8.29651 25.4153 7.185 26.4564C6.64233 26.9647 6.36717 27.5705 6.36717 28.2569C6.36717 30.0432 8.4476 30.4055 12.4344 30.9405L12.9367 31.0081C14.9108 31.2752 16.8254 32.0021 18.6771 32.705C20.3907 33.3556 22.236 33.9746 24.1184 34.0978C26.588 34.2595 28.6416 33.755 29.7532 32.7139C30.2959 32.2056 30.571 31.5997 30.571 30.9133C30.571 29.5818 29.4859 28.9669 26.2708 28.4769C25.9509 28.4282 25.7311 28.1292 25.7799 27.8094C25.8286 27.4894 26.1284 27.27 26.4474 27.3184C29.1269 27.7267 31.7429 28.3407 31.7429 30.9133C31.7429 31.9224 31.3319 32.8408 30.5543 33.5692C29.3625 34.6856 27.3671 35.2988 24.9897 35.2988ZM18.7763 19.5655C18.7748 19.5655 18.7732 19.5655 18.7716 19.5655C18.4493 19.5629 18.1898 19.3005 18.1903 18.9786C18.1903 18.9774 18.1903 18.9761 18.1903 18.9749L18.2384 12.8813C18.2646 12.3522 18.1029 12.0647 17.5364 11.7482L15.3289 10.5144C12.789 9.09492 11.8356 5.88751 13.2034 3.36441C13.8813 2.11407 15.0064 1.20749 16.3715 0.811697C17.7371 0.415907 19.1721 0.579817 20.4129 1.27327C21.6472 1.96313 22.4139 3.26995 22.4139 4.68397V5.07663L30.4582 9.57243C30.7406 9.73033 30.8416 10.0873 30.6838 10.3698C30.5259 10.6522 30.1689 10.7533 29.8864 10.5954L22.4139 6.41916V10.4467C27.9518 13.5417 35.8244 17.9416 36.213 18.1587C37.0589 18.6315 38.1322 18.3279 38.605 17.4818C39.0779 16.6357 38.7743 15.5626 37.9282 15.0897L31.8563 11.6963C31.5739 11.5384 31.4729 11.1815 31.6307 10.8989C31.7885 10.6164 32.1454 10.5154 32.428 10.6733L38.4998 14.0667C39.9101 14.8549 40.4161 16.6433 39.628 18.0535C38.8397 19.4636 37.0513 19.9697 35.6412 19.1815C35.2488 18.9622 27.2204 14.4753 21.6752 11.3762H20.9364C20.1343 11.3762 19.4101 12.0663 19.4101 12.9052L19.3621 18.984C19.3596 19.3062 19.0978 19.5655 18.7763 19.5655ZM17.8468 1.77289C17.4631 1.77289 17.077 1.82727 16.6979 1.93727C15.6362 2.24509 14.761 2.95026 14.2337 3.92301C13.1699 5.88524 13.9177 8.38319 15.9007 9.49141L18.1082 10.7252C18.3872 10.8811 18.6209 11.0546 18.8098 11.2467C19.1004 10.8746 19.486 10.5802 19.9293 10.4004C17.9931 9.31829 16.6282 8.55553 16.4721 8.46827C15.789 8.08654 15.2954 7.46153 15.0824 6.70854C14.8693 5.95556 14.9622 5.1646 15.344 4.48154C16.1322 3.07135 17.9208 2.56525 19.3308 3.35347L19.894 3.66824C20.1764 3.82614 20.2775 4.1831 20.1196 4.4656C19.9618 4.74811 19.6048 4.84921 19.3223 4.69123L18.7592 4.37654C17.9131 3.90364 16.84 4.20724 16.367 5.05335C16.1379 5.4632 16.0821 5.93774 16.21 6.38955C16.3379 6.84136 16.634 7.21637 17.044 7.44543C17.2194 7.54348 18.9195 8.49366 21.2421 9.79173V4.68397C21.2421 3.6941 20.7054 2.77916 19.8412 2.29626C19.2207 1.94946 18.5376 1.77289 17.8468 1.77289Z" fill="#8A4242"/>
</g>
<defs>
<clipPath id="clip0_2_1923">
<rect width="40" height="40" fill="white"/>
</clipPath>
</defs>
</svg>
